# xmcd
#
# Track frame offsets:
#	150
#	13392
#	31264
#	52813
#	73842
#	94425
#	111606
#	129138
#	147664
#	166681
#	179515
#	194307
#
# Disc length: 2905 seconds
# Revision: 0
# Processed by: cddbd v1.5.2PL0 Copyright (c) Steve Scherf et al.
# Submitted via: dBpowerAMP V12.0
#
DISCID=af0b570c
DTITLE=Hope Waits - Introducing Hope Waits
DYEAR=2007
DGENRE=Blues Female
TTITLE0=I'll be Satisfied
TTITLE1=You Crossed The Line
TTITLE2=Fortune Teller
TTITLE3=Yesterdays
TTITLE4=Get Behind The Mule
TTITLE5=Ring Them Bells
TTITLE6=Drown in my Own Tears
TTITLE7=The Ballad of Judith Anne
TTITLE8=Cigarettes And Coffee
TTITLE9=Mother-in-Law Blues
TTITLE10=Come Rain or Come Shine
TTITLE11=Ignatius
EXTD=
EXTT0=
EXTT1=
EXTT2=
EXTT3=
EXTT4=
EXTT5=
EXTT6=
EXTT7=
EXTT8=
EXTT9=
EXTT10=
EXTT11=
PLAYORDER=
